<?xml version="1.0" encoding="UTF-8"?>
<svg version="1.1" xmlns="http://www.w3.org/2000/svg" width="512" height="512">
<path d="M0 0 C0.83802824 -0.00465992 1.67605649 -0.00931984 2.53947952 -0.01412097 C5.36034008 -0.02611492 8.1807229 -0.01665859 11.00158787 -0.00736332 C13.03928136 -0.01153431 15.07697253 -0.01701052 17.11465937 -0.02368313 C22.72420242 -0.03818726 28.33359917 -0.03387752 33.9431504 -0.02651632 C39.98891938 -0.02179923 46.03465604 -0.03428153 52.08041477 -0.04453373 C63.24309685 -0.06075957 74.4057334 -0.06316111 85.56842104 -0.05822874 C95.88068872 -0.0536743 106.19293899 -0.05426732 116.50520611 -0.06006908 C117.8876492 -0.06082594 119.2700923 -0.06158192 120.6525354 -0.06233703 C122.73566659 -0.0634822 124.81879777 -0.06463208 126.90192895 -0.06579627 C146.27299701 -0.07650379 165.64405925 -0.08122393 185.01512909 -0.07332611 C185.74558067 -0.07302894 186.47603225 -0.07273176 187.22861872 -0.07242559 C193.1606752 -0.06997657 199.0927316 -0.06736502 205.024788 -0.06474145 C228.1662165 -0.05463812 251.30757244 -0.06299502 274.44899082 -0.086236 C300.44036409 -0.11229687 326.43169368 -0.1251597 352.4230805 -0.11804825 C355.19340614 -0.11733217 357.96373178 -0.11665779 360.73405743 -0.1160078 C361.41619672 -0.115838 362.09833602 -0.11566819 362.80114621 -0.11549323 C373.10684724 -0.11318841 383.41250778 -0.12117595 393.71819973 -0.13429928 C405.43581623 -0.14919382 417.15335397 -0.14970079 428.87097424 -0.13222837 C434.85242798 -0.12368835 440.83370005 -0.1216419 446.81514454 -0.13687992 C452.28707906 -0.15064768 457.75867492 -0.14606624 463.23058946 -0.12664068 C465.21370893 -0.12285596 467.19685502 -0.12587314 469.17995095 -0.13625234 C471.86945888 -0.14933155 474.55778215 -0.13792031 477.24723816 -0.12025452 C478.02259349 -0.12990503 478.79794882 -0.13955554 479.59679976 -0.14949849 C484.77779529 -0.07931299 487.75824532 1.01146933 491.68653965 4.38031673 C494.69525185 8.19089575 495.06252921 11.07283132 495.06685638 15.86654472 C495.07529633 17.1860399 495.08373627 18.50553509 495.09243196 19.86501497 C495.0866368 21.32787526 495.08055577 22.79073444 495.0742197 24.25359249 C495.07839206 25.80868527 495.08386904 27.363775 495.09053952 28.91885906 C495.10502574 33.19443246 495.10073952 37.46981362 495.0933727 41.74539769 C495.08865118 46.35557479 495.10114185 50.9657097 495.11139011 55.57587337 C495.12860333 64.60837378 495.12941291 73.6408047 495.12417721 82.67331725 C495.12013903 90.01344815 495.12157488 97.35355848 495.12692547 104.69368839 C495.12767389 105.73758979 495.12842231 106.78149119 495.12919341 107.85702597 C495.13072486 109.97757292 495.13226321 112.09811986 495.13380838 114.2186668 C495.14754251 134.11342954 495.14208928 154.00815298 495.13062317 173.90291483 C495.12068942 192.11155441 495.1336323 210.32009241 495.15755736 228.52871632 C495.1819281 247.21705925 495.19156124 265.90535483 495.18490463 284.59371334 C495.18140796 295.08913887 495.18367403 305.58448625 495.20115566 316.07989979 C495.21585232 325.01427373 495.21654634 333.94851448 495.19908475 342.88288575 C495.1905515 347.44262224 495.18848173 352.00212054 495.20373631 356.56184483 C495.21752436 360.73481947 495.21289658 364.90735055 495.19349707 369.08029915 C495.18971859 370.59101228 495.19271197 372.10176046 495.20310872 373.61244255 C495.21623125 375.66491374 495.20474069 377.71584316 495.1871109 379.7682476 C495.18700356 380.90849544 495.18689623 382.04874327 495.18678564 383.22354406 C494.44740432 387.88936605 492.16020753 391.0017242 488.74903965 394.19281673 C484.46987812 396.6565764 479.80215899 396.52191874 474.96852207 396.585639 C474.31430271 396.5955386 473.66008335 396.60543819 472.98603916 396.61563778 C470.83806487 396.64705588 468.69006852 396.67193166 466.5420084 396.69672298 C465.0469924 396.71730956 463.551982 396.73830646 462.05697727 396.75969601 C458.13288517 396.81474088 454.20874207 396.86422727 450.28456211 396.9125433 C446.27593064 396.96288718 442.26737271 397.01850581 438.25880527 397.07367611 C430.40144568 397.18104242 422.54402434 397.28253466 414.68653965 397.38031673 C415.08061166 397.77070157 415.47468367 398.16108641 415.88069725 398.56330109 C425.48191213 408.07606329 435.07182143 417.60009507 444.64976311 427.1362915 C449.28198692 431.74764826 453.91785468 436.35521324 458.56227207 440.95429134 C463.04493836 445.39347031 467.51773924 449.84237258 471.98389339 454.29816151 C473.68881925 455.99570134 475.39725977 457.68971881 477.10926342 459.38012028 C479.50813385 461.74992035 481.89415793 464.13198082 484.2776041 466.51727962 C484.98682514 467.21211956 485.69604618 467.9069595 486.42675877 468.62285519 C492.3520829 474.59814962 495.11429845 479.65788685 495.12403965 488.31781673 C494.93222192 495.5608543 493.82339972 500.08628622 488.8154459 505.34516048 C483.13705618 510.59418236 478.71553238 512.66886147 470.87403965 512.75531673 C469.71259434 512.78367611 468.55114902 512.81203548 467.3545084 512.84125423 C458.45635619 511.72306258 453.11765079 506.36358394 447.13087559 500.19940853 C445.90981113 498.96717304 445.90981113 498.96717304 444.66407871 497.71004391 C442.90709139 495.93455828 441.15471211 494.15450309 439.40650272 492.37037373 C436.64218603 489.55022664 433.865021 486.74332813 431.08406162 483.93959713 C424.18523341 476.98091864 417.30790582 470.00109213 410.43409824 463.01770687 C404.61338036 457.1047718 398.78277632 451.2019654 392.93782902 445.31297398 C390.19577354 442.54215514 387.46871378 439.75711683 384.7416544 436.97154903 C383.07008223 435.28501917 381.39777937 433.59921309 379.72462559 431.91425228 C378.96611301 431.13147915 378.20760044 430.34870602 377.42610264 429.54221249 C376.72537632 428.84257885 376.02465 428.14294521 375.30268955 427.42211056 C374.39463881 426.49935345 374.39463881 426.49935345 373.4682436 425.55795479 C371.7554221 424.15388317 371.7554221 424.15388317 369.64827442 424.59938431 C366.71587739 425.76672047 363.94096638 427.2079388 361.12403965 428.63031673 C349.08188381 434.48588492 334.85531593 438.5445186 321.41310215 438.47797298 C320.37234531 438.47547543 319.33158848 438.47297787 318.25929356 438.47040462 C316.95653477 438.46130062 315.65377598 438.45219662 314.31153965 438.44281673 C310.14528965 438.42219173 305.97903965 438.40156673 301.68653965 438.38031673 C301.68653965 449.60031673 301.68653965 460.82031673 301.68653965 472.38031673 C306.16474277 472.34551205 310.6429459 472.31070736 315.25685215 472.27484798 C318.83656151 472.25554337 322.41625609 472.23927913 325.99598789 472.22506618 C329.76989856 472.20925053 333.54360578 472.18812948 337.31739902 472.15399837 C340.95488967 472.12130739 344.5921835 472.10344333 348.22980976 472.09568501 C349.61484339 472.09015889 350.99986674 472.07936768 352.38481617 472.06312656 C354.33049786 472.04122546 356.27637926 472.04009025 358.22218418 472.03974056 C359.32804874 472.03307873 360.43391331 472.02641689 361.57328892 472.01955318 C367.16779831 472.66784503 370.93490809 475.13232245 374.49903965 479.38031673 C375.08298496 480.06094173 375.66693027 480.74156673 376.2685709 481.44281673 C379.85682291 486.34577265 379.10907088 492.58779775 378.68653965 498.38031673 C376.72276234 504.06493525 373.19325947 507.7774125 368.1519556 511.00103855 C363.51816135 512.84534567 359.49459614 512.7961826 354.55238438 512.76126766 C353.53468668 512.76594763 352.51698899 512.77062761 351.46845198 512.7754494 C348.05989534 512.78741095 344.65173987 512.77793736 341.24318027 512.76850033 C338.79885721 512.7725655 336.35453598 512.77790707 333.91021824 512.7844305 C327.96128558 512.79669503 322.01251025 512.79489294 316.06358373 512.78619258 C311.22824222 512.77941397 306.39293253 512.77850008 301.55758762 512.78176403 C300.86906795 512.78222373 300.18054828 512.78268343 299.47116438 512.78315706 C298.07239496 512.78411625 296.67362555 512.78508889 295.27485615 512.78607483 C282.16245027 512.79462689 269.05010733 512.78479749 255.93771178 512.76867373 C244.68973095 512.7552707 233.44184302 512.75759885 222.19386387 512.77143002 C209.12797851 512.78748909 196.0621483 512.79380294 182.99625444 512.78459322 C181.60266686 512.78363759 180.20907927 512.78269448 178.81549168 512.78176403 C178.12984242 512.7813012 177.44419316 512.78083838 176.73776665 512.78036153 C171.90893536 512.77777262 167.08013908 512.78214049 162.25131321 512.78920269 C155.75061847 512.79850114 149.25007203 512.79186906 142.74938488 512.77451992 C140.36209308 512.7705496 137.97478653 512.77169841 135.58750057 512.77830791 C132.33169847 512.78649165 129.07646095 512.77623959 125.82069492 512.76126766 C124.39978039 512.77130591 124.39978039 512.77130591 122.9501605 512.78154695 C116.32239969 512.72233054 112.13608407 511.48806426 106.99903965 507.06781673 C102.01990621 501.28125625 101.17261452 496.7137122 101.41310215 489.21234798 C102.07649382 482.34150564 105.75574251 479.08230746 110.74903965 474.79828548 C114.34560403 472.16612244 117.49581214 472.25817955 121.81031895 472.26679134 C123.72838352 472.26697262 123.72838352 472.26697262 125.68519688 472.26715755 C127.04371788 472.27219305 128.40223841 472.27735963 129.7607584 472.28266048 C131.61392673 472.2841711 131.61392673 472.2841711 133.50453281 472.28571224 C138.12771118 472.29095153 142.75087633 472.30491276 147.37403965 472.31781673 C157.70716465 472.33844173 168.04028965 472.35906673 178.68653965 472.38031673 C178.68653965 447.30031673 178.68653965 422.22031673 178.68653965 396.38031673 C173.17958408 396.39079037 167.67262852 396.401264 161.99879551 396.41205502 C143.82204265 396.44516595 125.64528861 396.46737673 107.46851349 396.48394108 C96.44587701 396.49425294 85.42326911 396.50831159 74.40065098 396.53119564 C64.79316376 396.55113223 55.18569724 396.56403383 45.57818991 396.56849372 C40.49126852 396.57110064 35.40440634 396.57722623 30.31750393 396.59177685 C25.52823312 396.60536496 20.73904583 396.60953687 15.94975758 396.6065321 C14.19339322 396.60708171 12.43702604 396.61105181 10.68067837 396.61872768 C8.27891991 396.62870819 5.87747499 396.62627435 3.47570896 396.62082577 C2.43822849 396.62956429 2.43822849 396.62956429 1.37978882 396.63847935 C-4.61284306 396.60184551 -9.55196595 395.87375764 -14.18846035 391.94281673 C-17.44334074 388.01781392 -17.43993102 385.08380488 -17.44768143 380.1401844 C-17.45213927 378.82467132 -17.45659711 377.50915823 -17.46119004 376.15378112 C-17.46110074 374.68503741 -17.46091088 373.2162937 -17.46063137 371.74755001 C-17.46392981 370.19418633 -17.46765533 368.6408235 -17.47177285 367.08746177 C-17.48180302 362.80742888 -17.48551127 358.52741001 -17.48816216 354.24736702 C-17.49206213 349.6358039 -17.50164058 345.02425191 -17.51037502 340.41269588 C-17.53014674 329.27107294 -17.54020592 318.12944907 -17.54910281 306.98781297 C-17.55348401 301.74410789 -17.5588512 296.50040383 -17.56409168 291.25669956 C-17.58110364 273.8313709 -17.59559904 256.40604286 -17.60284042 238.98070717 C-17.60475039 234.45774173 -17.60667071 229.93477629 -17.60862637 225.41181087 C-17.60911011 224.28761947 -17.60959385 223.16342807 -17.61009225 222.00517026 C-17.61839715 203.78347817 -17.64374199 185.56185162 -17.67620704 167.34018817 C-17.7092487 148.64287771 -17.72728651 129.94560061 -17.73048466 111.2482608 C-17.7326523 100.74608726 -17.7414381 90.24400934 -17.76694584 79.7418642 C-17.78861321 70.80013565 -17.79672278 61.85852595 -17.78697906 52.91677412 C-17.78242301 48.35299152 -17.7843961 43.78945435 -17.8037405 39.22570515 C-17.82129196 35.04896576 -17.82044014 30.87265229 -17.80484321 26.69590888 C-17.8024549 25.18378361 -17.80685372 23.67162946 -17.81867186 22.15954848 C-17.83373578 20.10517051 -17.82415919 18.05231256 -17.80844498 15.99797249 C-17.80942179 14.85664051 -17.81039859 13.71530854 -17.811405 12.53939074 C-17.04114506 7.65268667 -14.85361933 4.65864244 -11.08305162 1.52908653 C-7.37649964 -0.0083154 -3.946049 -0.03418699 0 0 Z " fill="#FEEEE3" transform="translate(17.31346035003662,-0.38031673431396484)"/>
<path d="M0 0 C0.83802824 -0.00465992 1.67605649 -0.00931984 2.53947952 -0.01412097 C5.36034008 -0.02611492 8.1807229 -0.01665859 11.00158787 -0.00736332 C13.03928136 -0.01153431 15.07697253 -0.01701052 17.11465937 -0.02368313 C22.72420242 -0.03818726 28.33359917 -0.03387752 33.9431504 -0.02651632 C39.98891938 -0.02179923 46.03465604 -0.03428153 52.08041477 -0.04453373 C63.24309685 -0.06075957 74.4057334 -0.06316111 85.56842104 -0.05822874 C95.88068872 -0.0536743 106.19293899 -0.05426732 116.50520611 -0.06006908 C117.8876492 -0.06082594 119.2700923 -0.06158192 120.6525354 -0.06233703 C122.73566659 -0.0634822 124.81879777 -0.06463208 126.90192895 -0.06579627 C146.27299701 -0.07650379 165.64405925 -0.08122393 185.01512909 -0.07332611 C185.74558067 -0.07302894 186.47603225 -0.07273176 187.22861872 -0.07242559 C193.1606752 -0.06997657 199.0927316 -0.06736502 205.024788 -0.06474145 C228.1662165 -0.05463812 251.30757244 -0.06299502 274.44899082 -0.086236 C300.44036409 -0.11229687 326.43169368 -0.1251597 352.4230805 -0.11804825 C355.19340614 -0.11733217 357.96373178 -0.11665779 360.73405743 -0.1160078 C361.41619672 -0.115838 362.09833602 -0.11566819 362.80114621 -0.11549323 C373.10684724 -0.11318841 383.41250778 -0.12117595 393.71819973 -0.13429928 C405.43581623 -0.14919382 417.15335397 -0.14970079 428.87097424 -0.13222837 C434.85242798 -0.12368835 440.83370005 -0.1216419 446.81514454 -0.13687992 C452.28707906 -0.15064768 457.75867492 -0.14606624 463.23058946 -0.12664068 C465.21370893 -0.12285596 467.19685502 -0.12587314 469.17995095 -0.13625234 C471.86945888 -0.14933155 474.55778215 -0.13792031 477.24723816 -0.12025452 C478.02259349 -0.12990503 478.79794882 -0.13955554 479.59679976 -0.14949849 C484.77779529 -0.07931299 487.75824532 1.01146933 491.68653965 4.38031673 C494.69525185 8.19089575 495.06252921 11.07283132 495.06685638 15.86654472 C495.07529633 17.1860399 495.08373627 18.50553509 495.09243196 19.86501497 C495.0866368 21.32787526 495.08055577 22.79073444 495.0742197 24.25359249 C495.07839206 25.80868527 495.08386904 27.363775 495.09053952 28.91885906 C495.10502574 33.19443246 495.10073952 37.46981362 495.0933727 41.74539769 C495.08865118 46.35557479 495.10114185 50.9657097 495.11139011 55.57587337 C495.12860333 64.60837378 495.12941291 73.6408047 495.12417721 82.67331725 C495.12013903 90.01344815 495.12157488 97.35355848 495.12692547 104.69368839 C495.12767389 105.73758979 495.12842231 106.78149119 495.12919341 107.85702597 C495.13072486 109.97757292 495.13226321 112.09811986 495.13380838 114.2186668 C495.14754251 134.11342954 495.14208928 154.00815298 495.13062317 173.90291483 C495.12068942 192.11155441 495.1336323 210.32009241 495.15755736 228.52871632 C495.1819281 247.21705925 495.19156124 265.90535483 495.18490463 284.59371334 C495.18140796 295.08913887 495.18367403 305.58448625 495.20115566 316.07989979 C495.21585232 325.01427373 495.21654634 333.94851448 495.19908475 342.88288575 C495.1905515 347.44262224 495.18848173 352.00212054 495.20373631 356.56184483 C495.21752436 360.73481947 495.21289658 364.90735055 495.19349707 369.08029915 C495.18971859 370.59101228 495.19271197 372.10176046 495.20310872 373.61244255 C495.21623125 375.66491374 495.20474069 377.71584316 495.1871109 379.7682476 C495.18700356 380.90849544 495.18689623 382.04874327 495.18678564 383.22354406 C494.44740432 387.88936605 492.16020753 391.0017242 488.74903965 394.19281673 C484.45886003 396.66292015 479.7580711 396.52802166 474.91188145 396.60492611 C474.25100529 396.61631618 473.59012913 396.62770626 472.90922642 396.63944149 C466.02966226 396.74969811 459.1490753 396.79743554 452.26881504 396.84027767 C449.01046772 396.86256392 445.75326381 396.9043605 442.49537754 396.96332455 C438.54723751 397.03461751 434.60017403 397.07113668 430.65142345 397.08339596 C429.15350615 397.0937565 427.65561884 397.11608573 426.15807247 397.15099239 C413.0101618 397.4416863 413.0101618 397.4416863 407.70533848 392.83539486 C405.88461399 390.88629818 405.88461399 390.88629818 404.68653965 389.38031673 C406.055103 385.01802104 407.7348614 380.95049543 409.68653965 376.81781673 C411.4670613 373.03865953 413.1524458 369.26534356 414.68653965 365.38031673 C415.83654453 365.36573421 416.98654942 365.3511517 418.17140293 365.33612728 C422.4544277 365.27797911 426.73693581 365.2007475 431.01954746 365.11786556 C432.87004784 365.08469377 434.72064751 365.05663786 436.57130527 365.03388119 C439.23774968 365.00019224 441.90329055 364.94787014 444.56935215 364.89203548 C445.80251667 364.8824506 445.80251667 364.8824506 447.06059361 364.87267208 C451.95985102 364.74839975 455.53074897 364.23803798 459.68653965 361.38031673 C464.77515666 355.81463712 464.25163135 350.17043301 464.20120335 342.90585995 C464.21162164 341.00165974 464.21162164 341.00165974 464.2222504 339.05899084 C464.24087379 335.54196785 464.23457406 332.02536602 464.22409737 328.50832558 C464.21710433 324.71270424 464.23310415 320.91716934 464.2460947 317.12157345 C464.26773899 309.68806631 464.26760661 302.25471223 464.25946916 294.82118393 C464.25316922 288.77876003 464.25430614 282.73638076 464.26074123 276.69395733 C464.26209372 275.40393539 464.26209372 275.40393539 464.26347352 274.08785241 C464.26532473 272.34072045 464.26718729 270.59358851 464.26906108 268.84645657 C464.28564136 252.4615443 464.27691876 236.07671812 464.2600755 219.69181101 C464.24538172 204.70487994 464.26000198 189.7181494 464.28884567 174.73124416 C464.31824632 159.34022479 464.32920978 143.94929796 464.31966347 128.55825174 C464.31864092 126.81693707 464.31764631 125.07562238 464.31667995 123.33430767 C464.31596537 122.04919367 464.31596537 122.04919367 464.31523635 120.73811776 C464.31307292 114.70494201 464.32287264 108.67185393 464.33745098 102.63869762 C464.35497668 95.28319105 464.35485382 87.92794004 464.33209933 80.5724435 C464.32095854 76.82046048 464.3177903 73.06892769 464.33640003 69.31696415 C464.35632609 65.24718605 464.33741676 61.17850423 464.31472874 57.10874081 C464.32656447 55.92605134 464.33840019 54.74336187 464.35059458 53.52483332 C464.27199804 46.59299475 463.40198171 41.65644556 458.68653965 36.38031673 C453.27488118 32.15922313 449.4973363 31.2556227 442.73359489 31.24330235 C442.01834806 31.24065052 441.30310124 31.23799869 440.56618026 31.23526651 C438.15107152 31.22756025 435.73601351 31.22701383 433.32089329 31.22641659 C431.57921411 31.22240284 429.83753587 31.21796477 428.09585875 31.21313703 C423.29521666 31.20115596 418.49458463 31.19551954 413.69393051 31.19095588 C408.52199605 31.18500564 403.35007365 31.1733944 398.17814732 31.16266537 C385.68092377 31.13812887 373.18369622 31.12351279 360.68645599 31.1106053 C357.15799856 31.10689441 353.62954151 31.1029211 350.10108447 31.09885263 C328.1999232 31.0736182 306.29876133 31.05156041 284.39758873 31.03912449 C279.32325138 31.03619469 274.24891406 31.03323304 269.17457676 31.03021908 C267.9133417 31.02947303 266.65210664 31.02872698 265.35265233 31.02795832 C244.91428167 31.01530048 224.47599792 30.98207228 204.03766791 30.94041725 C183.06450356 30.89802177 162.09138373 30.87443225 141.11817664 30.86920393 C129.338245 30.8657872 117.5584492 30.85400113 105.77855968 30.82110119 C95.74772702 30.79313241 85.71705803 30.78208745 75.68618939 30.79329665 C70.56719807 30.7984913 65.4485497 30.79554399 60.32960796 30.77083111 C55.64322795 30.74839511 50.95743836 30.74903449 46.27104839 30.76803498 C44.57584409 30.77084292 42.88060023 30.76519248 41.18545971 30.75022204 C30.04817496 30.34155059 30.04817496 30.34155059 20.19969094 34.80688095 C13.54447991 41.727238 12.96388648 47.66938281 13.05835056 57.10874081 C13.05125618 58.38132759 13.04416179 59.65391438 13.03685242 60.96506441 C13.01798165 64.48153422 13.03013376 67.99730543 13.04757535 71.51375723 C13.06097408 75.31203132 13.04550346 79.11020486 13.0337534 82.9084692 C13.01539209 90.34241441 13.02387847 97.77609647 13.04184162 105.21003343 C13.05587572 111.25147705 13.05975869 117.29284931 13.05639935 123.33430767 C13.0559219 124.19462876 13.05544446 125.05494985 13.05495255 125.94134127 C13.05392621 127.68912163 13.05287085 129.43690197 13.05178679 131.18468229 C13.04322305 146.63243337 13.05988525 162.08005749 13.08961582 177.52777767 C13.11846247 192.51643867 13.12553161 207.50491683 13.11012363 222.49359798 C13.09336377 238.81972662 13.08932429 255.14576849 13.10683399 271.47189939 C13.10867837 273.21258536 13.1105131 274.95327134 13.11233807 276.69395733 C13.11325016 277.55039145 13.11416225 278.40682557 13.11510197 279.28921223 C13.12070793 285.32433187 13.11739973 291.35940914 13.11079311 297.39452648 C13.10306294 304.74782945 13.10980135 312.10095243 13.13496815 319.45421912 C13.14746947 323.20590156 13.15360217 326.95730368 13.14242649 330.70899677 C13.13054349 334.77487821 13.14963087 338.84002217 13.17187595 342.90585995 C13.16363519 344.09301086 13.15539442 345.28016177 13.14690393 346.50328696 C13.21033246 352.76334948 13.43564477 356.64346531 17.68653965 361.38031673 C22.30112262 365.52986847 28.01904117 364.85650729 33.8935709 364.89203548 C35.33089573 364.91699093 35.33089573 364.91699093 36.79725742 364.94245052 C40.36429667 365.00012671 43.93170924 365.03247172 47.49903965 365.06781673 C55.48091465 365.17094173 63.46278965 365.27406673 71.68653965 365.38031673 C71.68653965 340.96031673 71.68653965 316.54031673 71.68653965 291.38031673 C112.15981438 271.09962701 152.63591841 250.8246319 193.11837094 230.56227043 C197.89258911 228.17265979 202.66677242 225.78297951 207.44093418 223.39325619 C208.39142506 222.91748613 209.34191593 222.44171607 210.32120956 221.95152874 C225.73182419 214.23750765 241.1396047 206.51784209 256.5463538 198.79610407 C272.34324362 190.87898712 288.14314391 182.96790361 303.94588292 175.06246811 C313.70487314 170.18022233 323.46145586 165.29322866 333.21505691 160.40022517 C339.89449364 157.04997316 346.57683293 153.70556121 353.2615305 150.36581855 C357.12399056 148.43587549 360.98507377 146.50329643 364.84274769 144.56380177 C368.36883401 142.79108764 371.8984722 141.02567507 375.43118145 139.26619805 C376.71390511 138.62568731 377.99525749 137.98242208 379.27513896 137.33625071 C381.00445851 136.46365743 382.73913683 135.60170781 384.47412014 134.74043083 C385.43936922 134.25704685 386.4046183 133.77366287 387.39911735 133.27563089 C388.15396671 132.98017722 388.90881607 132.68472355 389.68653965 132.38031673 C390.34653965 132.71031673 391.00653965 133.04031673 391.68653965 133.38031673 C390.73213496 137.25629514 389.77231997 141.13091424 388.81153965 145.00531673 C388.40741856 146.64693783 388.40741856 146.64693783 387.9951334 148.32172298 C387.73087559 149.38519955 387.46661777 150.44867611 387.19435215 151.54437923 C386.83301182 153.00545101 386.83301182 153.00545101 386.46437168 154.49603939 C385.91196591 156.54441407 385.28608434 158.57359174 384.6111002 160.58490658 C382.78688593 166.10042105 382.88879534 171.47266729 385.12403965 176.81781673 C385.63966465 177.66344173 386.15528965 178.50906673 386.68653965 179.38031673 C387.01653965 180.37031673 387.34653965 181.36031673 387.68653965 182.38031673 C393.23825582 185.87584173 399.2571862 186.57664755 405.68653965 187.38031673 C405.68653965 217.08031673 405.68653965 246.78031673 405.68653965 277.38031673 C402.96165012 274.65542721 400.92133995 272.00246422 398.68653965 268.88031673 C383.21497345 247.93748858 361.65045522 235.43511857 336.68653965 229.38031673 C335.70814121 229.1341058 334.72974277 228.88789486 333.7216959 228.63422298 C307.46648761 223.17223561 280.23464964 229.50235563 257.68653965 243.38031673 C234.32834153 258.780994 218.54799096 281.27930805 211.68653965 308.38031673 C211.34816074 309.68355892 211.34816074 309.68355892 211.0029459 311.01312923 C205.11486165 338.86985885 211.84659597 368.26412094 227.20216465 391.91156673 C231.39037568 397.97255505 236.45433457 403.22170104 241.68653965 408.38031673 C242.77708652 409.48633236 242.77708652 409.48633236 243.88966465 410.61469173 C260.12185578 426.10342373 280.29527767 432.65757058 301.68653965 437.38031673 C301.68653965 448.93031673 301.68653965 460.48031673 301.68653965 472.38031673 C306.16474277 472.34551205 310.6429459 472.31070736 315.25685215 472.27484798 C318.83656151 472.25554337 322.41625609 472.23927913 325.99598789 472.22506618 C329.76989856 472.20925053 333.54360578 472.18812948 337.31739902 472.15399837 C340.95488967 472.12130739 344.5921835 472.10344333 348.22980976 472.09568501 C349.61484339 472.09015889 350.99986674 472.07936768 352.38481617 472.06312656 C354.33049786 472.04122546 356.27637926 472.04009025 358.22218418 472.03974056 C359.32804874 472.03307873 360.43391331 472.02641689 361.57328892 472.01955318 C367.16779831 472.66784503 370.93490809 475.13232245 374.49903965 479.38031673 C375.08298496 480.06094173 375.66693027 480.74156673 376.2685709 481.44281673 C379.85682291 486.34577265 379.10907088 492.58779775 378.68653965 498.38031673 C376.72276234 504.06493525 373.19325947 507.7774125 368.1519556 511.00103855 C363.51816135 512.84534567 359.49459614 512.7961826 354.55238438 512.76126766 C353.53468668 512.76594763 352.51698899 512.77062761 351.46845198 512.7754494 C348.05989534 512.78741095 344.65173987 512.77793736 341.24318027 512.76850033 C338.79885721 512.7725655 336.35453598 512.77790707 333.91021824 512.7844305 C327.96128558 512.79669503 322.01251025 512.79489294 316.06358373 512.78619258 C311.22824222 512.77941397 306.39293253 512.77850008 301.55758762 512.78176403 C300.86906795 512.78222373 300.18054828 512.78268343 299.47116438 512.78315706 C298.07239496 512.78411625 296.67362555 512.78508889 295.27485615 512.78607483 C282.16245027 512.79462689 269.05010733 512.78479749 255.93771178 512.76867373 C244.68973095 512.7552707 233.44184302 512.75759885 222.19386387 512.77143002 C209.12797851 512.78748909 196.0621483 512.79380294 182.99625444 512.78459322 C181.60266686 512.78363759 180.20907927 512.78269448 178.81549168 512.78176403 C178.12984242 512.7813012 177.44419316 512.78083838 176.73776665 512.78036153 C171.90893536 512.77777262 167.08013908 512.78214049 162.25131321 512.78920269 C155.75061847 512.79850114 149.25007203 512.79186906 142.74938488 512.77451992 C140.36209308 512.7705496 137.97478653 512.77169841 135.58750057 512.77830791 C132.33169847 512.78649165 129.07646095 512.77623959 125.82069492 512.76126766 C124.39978039 512.77130591 124.39978039 512.77130591 122.9501605 512.78154695 C116.32239969 512.72233054 112.13608407 511.48806426 106.99903965 507.06781673 C102.01990621 501.28125625 101.17261452 496.7137122 101.41310215 489.21234798 C102.07649382 482.34150564 105.75574251 479.08230746 110.74903965 474.79828548 C114.34560403 472.16612244 117.49581214 472.25817955 121.81031895 472.26679134 C123.72838352 472.26697262 123.72838352 472.26697262 125.68519688 472.26715755 C127.04371788 472.27219305 128.40223841 472.27735963 129.7607584 472.28266048 C131.61392673 472.2841711 131.61392673 472.2841711 133.50453281 472.28571224 C138.12771118 472.29095153 142.75087633 472.30491276 147.37403965 472.31781673 C157.70716465 472.33844173 168.04028965 472.35906673 178.68653965 472.38031673 C178.68653965 447.30031673 178.68653965 422.22031673 178.68653965 396.38031673 C173.17958408 396.39079037 167.67262852 396.401264 161.99879551 396.41205502 C143.82204265 396.44516595 125.64528861 396.46737673 107.46851349 396.48394108 C96.44587701 396.49425294 85.42326911 396.50831159 74.40065098 396.53119564 C64.79316376 396.55113223 55.18569724 396.56403383 45.57818991 396.56849372 C40.49126852 396.57110064 35.40440634 396.57722623 30.31750393 396.59177685 C25.52823312 396.60536496 20.73904583 396.60953687 15.94975758 396.6065321 C14.19339322 396.60708171 12.43702604 396.61105181 10.68067837 396.61872768 C8.27891991 396.62870819 5.87747499 396.62627435 3.47570896 396.62082577 C2.43822849 396.62956429 2.43822849 396.62956429 1.37978882 396.63847935 C-4.61284306 396.60184551 -9.55196595 395.87375764 -14.18846035 391.94281673 C-17.44334074 388.01781392 -17.43993102 385.08380488 -17.44768143 380.1401844 C-17.45213927 378.82467132 -17.45659711 377.50915823 -17.46119004 376.15378112 C-17.46110074 374.68503741 -17.46091088 373.2162937 -17.46063137 371.74755001 C-17.46392981 370.19418633 -17.46765533 368.6408235 -17.47177285 367.08746177 C-17.48180302 362.80742888 -17.48551127 358.52741001 -17.48816216 354.24736702 C-17.49206213 349.6358039 -17.50164058 345.02425191 -17.51037502 340.41269588 C-17.53014674 329.27107294 -17.54020592 318.12944907 -17.54910281 306.98781297 C-17.55348401 301.74410789 -17.5588512 296.50040383 -17.56409168 291.25669956 C-17.58110364 273.8313709 -17.59559904 256.40604286 -17.60284042 238.98070717 C-17.60475039 234.45774173 -17.60667071 229.93477629 -17.60862637 225.41181087 C-17.60911011 224.28761947 -17.60959385 223.16342807 -17.61009225 222.00517026 C-17.61839715 203.78347817 -17.64374199 185.56185162 -17.67620704 167.34018817 C-17.7092487 148.64287771 -17.72728651 129.94560061 -17.73048466 111.2482608 C-17.7326523 100.74608726 -17.7414381 90.24400934 -17.76694584 79.7418642 C-17.78861321 70.80013565 -17.79672278 61.85852595 -17.78697906 52.91677412 C-17.78242301 48.35299152 -17.7843961 43.78945435 -17.8037405 39.22570515 C-17.82129196 35.04896576 -17.82044014 30.87265229 -17.80484321 26.69590888 C-17.8024549 25.18378361 -17.80685372 23.67162946 -17.81867186 22.15954848 C-17.83373578 20.10517051 -17.82415919 18.05231256 -17.80844498 15.99797249 C-17.80942179 14.85664051 -17.81039859 13.71530854 -17.811405 12.53939074 C-17.04114506 7.65268667 -14.85361933 4.65864244 -11.08305162 1.52908653 C-7.37649964 -0.0083154 -3.946049 -0.03418699 0 0 Z " fill="#6770E5" transform="translate(17.31346035003662,-0.38031673431396484)"/>
<path d="M0 0 C8.95877167 7.67894715 17.05037953 15.64475202 23.3125 25.6875 C24.28123047 27.1725 24.28123047 27.1725 25.26953125 28.6875 C39.12768494 51.15731708 44.20652058 79.16652428 38.28515625 104.97265625 C35.40347044 115.97861292 32.09892945 125.86136176 26.47265625 135.796875 C25.03727232 138.49239784 25.03727232 138.49239784 25.8911438 140.54182434 C27.8220815 143.45676291 30.2924151 145.61346648 32.89404297 147.90893555 C41.18655208 155.39869988 49.08991576 163.26262853 57.0078125 171.14453125 C57.77545803 171.90810125 58.54310356 172.67167126 59.33401108 173.45837975 C63.37987535 177.48358881 67.42260459 181.51191683 71.46289062 185.54272461 C75.6226739 189.69135016 79.79403033 193.82814163 83.96791267 197.96257496 C87.19503559 201.16357645 90.41326282 204.37341002 93.62914658 207.58569908 C95.16394633 209.11563915 96.70211297 210.64220961 98.24374771 212.16526222 C100.39224655 214.28941603 102.52776993 216.42584769 104.66064453 218.56567383 C105.29333755 219.18555679 105.92603058 219.80543976 106.57789612 220.44410706 C112.24055676 226.17424265 114.74071319 231.36902488 114.75 239.625 C114.55818227 246.86803756 113.44936007 251.39346949 108.44140625 256.65234375 C102.76301653 261.90136563 98.34149273 263.97604473 90.5 264.0625 C89.33855469 264.09085938 88.17710937 264.11921875 86.98046875 264.1484375 C78.08231654 263.03024585 72.74361114 257.67076721 66.75683594 251.5065918 C65.94279297 250.68510147 65.12875 249.86361115 64.29003906 249.01722717 C62.53305174 247.24174154 60.78067246 245.46168635 59.03246307 243.67755699 C56.26814638 240.85740991 53.49098135 238.0505114 50.71002197 235.2467804 C43.81119376 228.2881019 36.93386617 221.30827539 30.06005859 214.32489014 C24.23934071 208.41195506 18.40873667 202.50914867 12.56378937 196.62015724 C9.82173389 193.8493384 7.09467413 191.0643001 4.36761475 188.2787323 C2.69604258 186.59220243 1.02373972 184.90639636 -0.64941406 183.22143555 C-1.40792664 182.43866241 -2.16643921 181.65588928 -2.94793701 180.84939575 C-3.64866333 180.14976212 -4.34938965 179.45012848 -5.0713501 178.72929382 C-5.67671726 178.11412242 -6.28208443 177.49895102 -6.90579605 176.86513805 C-8.61861755 175.46106643 -8.61861755 175.46106643 -10.72576523 175.90656757 C-13.65816226 177.07390373 -16.43307327 178.51512207 -19.25 179.9375 C-43.99918006 191.97193248 -73.7145595 193.42963799 -99.6875 184.6875 C-127.38751022 174.80568793 -149.18209082 154.83581081 -162.00927734 128.48950195 C-173.66848446 103.83903072 -175.63161796 75.4626726 -166.68676758 49.55175781 C-156.51472109 21.69712155 -136.82486615 -0.46813742 -110.0625 -13.1875 C-103.45196495 -16.18434443 -96.72358412 -18.53562089 -89.6875 -20.3125 C-88.34945312 -20.65087891 -88.34945312 -20.65087891 -86.984375 -20.99609375 C-57.08023957 -27.1905218 -23.82163032 -18.89534416 0 0 Z " fill="#FE8355" transform="translate(397.6875,248.3125)"/>
<path d="M0 0 C1.23041016 0.31694824 2.46082031 0.63389648 3.72851562 0.96044922 C11.92689591 3.09096337 20.08332631 5.35636926 28.21142578 7.74023438 C34.22927959 9.49696258 40.28166584 11.0289801 46.375 12.5 C66.25602423 17.37405755 66.25602423 17.37405755 72.28515625 26.21875 C79.04977705 39.03195931 68.66855591 61.14134011 64.92163086 74.00415039 C63.16934886 80.05314696 61.60862985 86.13017348 60.125 92.25 C53.61988335 118.58929444 53.61988335 118.58929444 45.6875 124.875 C39.90383368 127.82836152 34.03792433 127.63191631 28 125.6875 C22.41996842 122.63427517 18.84456683 118.89208115 16.6875 112.875 C15.73805454 104.69312924 17.86873828 97.29756987 20.125 89.5 C20.45048828 88.33855469 20.77597656 87.17710937 21.11132812 85.98046875 C21.71205367 83.83767455 22.3181044 81.69636031 22.93139648 79.55712891 C23.55733833 77.336723 24.1342503 75.11414069 24.6875 72.875 C8.80647734 80.26186251 -6.85510194 88.07975014 -22.5130105 95.92455196 C-26.27207633 97.80731489 -30.0323365 99.68768981 -33.79244995 101.56835938 C-40.28560512 104.81637036 -46.77805072 108.06579585 -53.27001953 111.31617737 C-62.65903355 116.01699706 -72.04936771 120.7151748 -81.4400506 125.41265959 C-96.68502454 133.0386678 -111.92924901 140.66617281 -127.17285156 148.29492188 C-128.08242945 148.75012473 -128.99200734 149.20532758 -129.9291482 149.67432445 C-136.39028455 152.90784483 -142.8513943 156.14141836 -149.3125 159.375 C-156.72100824 163.08272306 -164.12953144 166.79041623 -171.53808594 170.49804688 C-172.45139262 170.95511428 -173.3646993 171.41218168 -174.30568194 171.88309962 C-189.51668729 179.49543741 -204.72847364 187.10621324 -219.94082069 194.71586943 C-229.31461561 199.40500851 -238.68769582 204.0955707 -248.05986273 208.78796285 C-254.4669365 211.9957023 -260.8747094 215.20204203 -267.28304231 218.40726525 C-270.98219836 220.25751756 -274.68101452 222.10844152 -278.37896347 223.96110535 C-281.76008329 225.65502603 -285.14210883 227.34712345 -288.52487922 229.03774542 C-290.33476568 229.94288976 -292.14365624 230.85002461 -293.95251656 231.75721788 C-295.55322911 232.5565434 -295.55322911 232.5565434 -297.1862793 233.37201691 C-298.57256783 234.06585252 -298.57256783 234.06585252 -299.98686218 234.77370501 C-305.43714007 237.3546588 -311.53387025 238.14421345 -317.34765625 236.19140625 C-322.51030982 233.45690183 -326.45782999 229.43901003 -328.3125 223.875 C-328.99516217 217.29218623 -329.26599592 211.1713242 -325.0791086 205.73683846 C-318.67848842 198.99118985 -308.40262019 195.27915052 -300.18930054 191.19314575 C-298.88531209 190.54071459 -297.58149978 189.88793128 -296.27784693 189.23482978 C-292.72213107 187.45475093 -289.16396072 185.67962985 -285.60534501 183.90535688 C-281.75808483 181.98606585 -277.91315465 180.06211734 -274.06793213 178.13874817 C-267.41448628 174.81150219 -260.75958794 171.48717694 -254.10367966 168.16485977 C-244.48048559 163.36140742 -234.85951699 158.5535117 -225.23907693 153.7445464 C-209.62855958 145.94147358 -194.01626094 138.14197171 -178.40283203 130.34472656 C-163.24043377 122.77271361 -148.07888092 115.19901212 -132.91845703 107.62304688 C-131.98316765 107.15566491 -131.04787828 106.68828295 -130.0842468 106.20673789 C-125.39194099 103.86189007 -120.69965174 101.51700914 -116.00737071 99.17211175 C-77.11164473 79.73460686 -38.21302338 60.30290182 0.6875 40.875 C-0.05298584 40.70484375 -0.79347168 40.5346875 -1.55639648 40.359375 C-4.96166299 39.55969964 -8.35515651 38.71778221 -11.75 37.875 C-12.91466797 37.60816406 -14.07933594 37.34132812 -15.27929688 37.06640625 C-23.19241941 35.06026251 -29.10614893 32.34772007 -34.3125 25.875 C-36.98213738 20.18814135 -37.63790314 13.779566 -35.58984375 7.74609375 C-27.65345522 -7.13061835 -13.55755882 -3.59854213 0 0 Z " fill="#FE8354" transform="translate(383.3125,60.125)"/>
<path d="M0 0 C8.1675 -0.268125 16.335 -0.53625 24.75 -0.8125 C28.57996582 -0.99002808 28.57996582 -0.99002808 32.48730469 -1.17114258 C49.67245589 -1.63228763 49.67245589 -1.63228763 55.16894531 2.80444336 C58.27585994 5.89827595 60.59926708 9.34408684 63 13 C79.17529704 30.01741749 100.73517706 37.08438974 123 42 C123 53.55 123 65.1 123 77 C127.47820312 76.96519531 131.95640625 76.93039062 136.5703125 76.89453125 C140.15002186 76.87522664 143.72971644 76.85896239 147.30944824 76.84474945 C151.08335891 76.8289338 154.85706613 76.80781275 158.63085938 76.77368164 C162.26835002 76.74099065 165.90564385 76.7231266 169.54327011 76.71536827 C170.92830374 76.70984215 172.31332709 76.69905095 173.69827652 76.68280983 C175.64395821 76.66090872 177.58983961 76.65977352 179.53564453 76.65942383 C180.64150909 76.65276199 181.74737366 76.64610016 182.88674927 76.63923645 C188.48125866 77.2875283 192.24836844 79.75200572 195.8125 84 C196.39644531 84.680625 196.98039062 85.36125 197.58203125 86.0625 C201.17028326 90.96545592 200.42253123 97.20748101 200 103 C198.03622269 108.68461852 194.50671982 112.39709576 189.46541595 115.62072182 C184.8316217 117.46502894 180.80805649 117.41586587 175.86584473 117.38095093 C174.84814703 117.3856309 173.83044934 117.39031087 172.78191233 117.39513266 C169.37335569 117.40709422 165.96520022 117.39762063 162.55664062 117.38818359 C160.11231756 117.39224876 157.66799633 117.39759034 155.22367859 117.40411377 C149.27474593 117.41637829 143.3259706 117.4145762 137.37704408 117.40587585 C132.54170257 117.39909724 127.70639288 117.39818334 122.87104797 117.4014473 C121.83826847 117.40213684 121.83826847 117.40213684 120.78462473 117.40284032 C119.38585531 117.40379951 117.9870859 117.40477215 116.5883165 117.4057581 C103.47591062 117.41431016 90.36356768 117.40448076 77.25117213 117.388357 C66.0031913 117.37495397 54.75530337 117.37728211 43.50732422 117.39111328 C30.44143886 117.40717236 17.37560865 117.4134862 4.30971479 117.40427649 C2.91612721 117.40332086 1.52253962 117.40237774 0.12895203 117.4014473 C-0.89952186 117.40075306 -0.89952186 117.40075306 -1.948773 117.40004479 C-6.77760429 117.39745588 -11.60640057 117.40182376 -16.43522644 117.40888596 C-22.93592118 117.4181844 -29.43646762 117.41155232 -35.93715477 117.39420319 C-38.32444657 117.39023286 -40.71175312 117.39138167 -43.09903908 117.39799118 C-46.35484118 117.40617491 -49.6100787 117.39592285 -52.86584473 117.38095093 C-53.81312109 117.38764309 -54.76039744 117.39433526 -55.73637915 117.40123022 C-62.36413996 117.3420138 -66.55045558 116.10774752 -71.6875 111.6875 C-76.66663344 105.90093951 -77.51392513 101.33339546 -77.2734375 93.83203125 C-76.61004583 86.96118891 -72.93079714 83.70199072 -67.9375 79.41796875 C-64.34093562 76.78580571 -61.19072751 76.87786282 -56.8762207 76.88647461 C-54.95815613 76.88665588 -54.95815613 76.88665588 -53.00134277 76.88684082 C-51.64282177 76.89187632 -50.28430124 76.8970429 -48.92578125 76.90234375 C-47.07261292 76.90385437 -47.07261292 76.90385437 -45.18200684 76.90539551 C-40.55882847 76.9106348 -35.93566332 76.92459602 -31.3125 76.9375 C-20.979375 76.958125 -10.64625 76.97875 0 77 C0 51.59 0 26.18 0 0 Z " fill="#666FE5" transform="translate(196,395)"/>
<path d="M0 0 C1.051875 0.3403125 2.10375 0.680625 3.1875 1.03125 C20.81798972 7.18528886 35.15486491 19.59370105 44 36 C44.45890625 36.84820312 44.9178125 37.69640625 45.390625 38.5703125 C54.04855866 56.04264849 55.83501088 76.13967901 49.77734375 94.7578125 C42.19588293 115.44141844 28.21928241 131.19841962 8.25390625 140.53125 C-8.76987701 148.21545469 -28.11416347 149.85810075 -45.96728516 143.77050781 C-58.19229881 139.13657278 -67.99897673 132.39237211 -77 123 C-77.68578125 122.29875 -78.3715625 121.5975 -79.078125 120.875 C-93.00545232 105.85770793 -97.83458853 86.60698093 -97.3046875 66.5859375 C-96.34740209 47.74877579 -87.44653434 30.04111119 -74 17 C-54.04595779 -0.73391811 -25.76632258 -9.07677273 0 0 Z " fill="#A1F0FB" transform="translate(354,260)"/>
<path d="M0 0 C0 42.57 0 85.14 0 129 C-36.3 129 -72.6 129 -110 129 C-110 104.58 -110 80.16 -110 55 C-88.16435904 43.50755739 -88.16435904 43.50755739 -80.59716797 39.73388672 C-79.27868362 39.07333031 -79.27868362 39.07333031 -77.93356323 38.39942932 C-75.12075158 36.9908794 -72.30654183 35.58515217 -69.4921875 34.1796875 C-67.50385826 33.18518504 -65.51558834 32.19056397 -63.52737427 31.1958313 C-59.40870708 29.1357686 -55.28933601 27.07712245 -51.16943359 25.01953125 C-45.87867119 22.37703296 -40.58975035 19.73087156 -35.30132866 17.08369255 C-31.21875524 15.04060686 -27.13523892 12.99941179 -23.05142593 10.95880508 C-21.09819279 9.98252243 -19.14525744 9.00564374 -17.19262314 8.02816391 C-14.48728507 6.67423423 -11.78069125 5.32284969 -9.07373047 3.97216797 C-8.26560913 3.56709518 -7.45748779 3.1620224 -6.62487793 2.74467468 C-1.11427702 0 -1.11427702 0 0 0 Z " fill="#6770E5" transform="translate(200,236)"/>
<path d="M0 0 C0.99 0.495 0.99 0.495 2 1 C1.04559531 4.8759784 0.08578032 8.75059751 -0.875 12.625 C-1.14441406 13.71941406 -1.41382813 14.81382812 -1.69140625 15.94140625 C-1.95566406 17.00488281 -2.21992188 18.06835938 -2.4921875 19.1640625 C-2.85352783 20.62513428 -2.85352783 20.62513428 -3.22216797 22.11572266 C-3.77457374 24.16409734 -4.40045531 26.193275 -5.07543945 28.20458984 C-6.89965372 33.72010432 -6.79774431 39.09235055 -4.5625 44.4375 C-4.046875 45.283125 -3.53125 46.12875 -3 47 C-2.67 47.99 -2.34 48.98 -2 50 C3.55171617 53.49552499 9.57064655 54.19633082 16 55 C16 84.7 16 114.4 16 145 C13.27511047 142.27511047 11.2348003 139.62214748 9 136.5 C-6.4715662 115.55717184 -28.03608443 103.05480183 -53 97 C-53.97839844 96.75378906 -54.95679688 96.50757813 -55.96484375 96.25390625 C-68.90109417 93.56272073 -82.98260083 94.55362231 -96 96 C-96 80.16 -96 64.32 -96 48 C-72.12188884 35.9807268 -72.12188884 35.9807268 -61.97265625 30.88867188 C-55.03494673 27.40784029 -48.09816027 23.9252466 -41.16650391 20.43237305 C-35.5808877 17.61790691 -29.99145101 14.81117179 -24.39922714 12.00985909 C-22.26149119 10.93728266 -20.12517038 9.86188111 -17.99026871 8.78367424 C-15.01034178 7.27928942 -12.02563722 5.78483673 -9.03955078 4.29272461 C-8.14907043 3.84029388 -7.25859009 3.38786316 -6.34112549 2.92172241 C-5.53061737 2.51921768 -4.72010925 2.11671295 -3.88504028 1.70201111 C-3.17894686 1.34712081 -2.47285343 0.99223051 -1.74536324 0.62658596 C-1.16939337 0.41981259 -0.5934235 0.21303923 0 0 Z " fill="#6AEAFB" transform="translate(407,132)"/>
<path d="M0 0 C0 15.51 0 31.02 0 47 C-10.395 50.465 -10.395 50.465 -21 54 C-48.99742018 67.45612443 -68.60196394 88.28060979 -79.24609375 117.41015625 C-80.2800058 120.58763686 -81.17998821 123.76115945 -82 127 C-82.33837891 128.30324219 -82.33837891 128.30324219 -82.68359375 129.6328125 C-86.07843856 145.69394037 -84.79945937 163.15251404 -81 179 C-80.67 180.65 -80.34 182.3 -80 184 C-90.23 184 -100.46 184 -111 184 C-111 141.43 -111 98.86 -111 55 C-89.15565729 43.50297752 -89.15565729 43.50297752 -81.61303711 39.73388672 C-80.2969622 39.07333031 -80.2969622 39.07333031 -78.95429993 38.39942932 C-76.14632799 36.99081559 -73.33695112 35.58503602 -70.52734375 34.1796875 C-68.5414405 33.18512428 -66.55556561 32.19050443 -64.56971741 31.1958313 C-60.4553003 29.13566179 -56.34008705 27.07709291 -52.22436523 25.01953125 C-46.94198281 22.37839149 -41.66240458 19.73169559 -36.38346004 17.08369255 C-32.30577986 15.03931664 -28.22630598 12.99854115 -24.14630318 10.95880508 C-22.19633318 9.98322948 -20.24701273 9.00635447 -18.2983532 8.02816391 C-15.59652485 6.67238464 -12.89224257 5.32163216 -10.18725586 3.97216797 C-9.3827298 3.56709518 -8.57820374 3.1620224 -7.7492981 2.74467468 C-2.22833706 0 -2.22833706 0 0 0 Z " fill="#D476E1" transform="translate(311,181)"/>
<path d="M0 0 C8.1675 -0.268125 16.335 -0.53625 24.75 -0.8125 C28.57996582 -0.99002808 28.57996582 -0.99002808 32.48730469 -1.17114258 C49.67245589 -1.63228763 49.67245589 -1.63228763 55.16894531 2.80444336 C58.27585994 5.89827595 60.59926708 9.34408684 63 13 C79.17529704 30.01741749 100.73517706 37.08438974 123 42 C123 53.55 123 65.1 123 77 C82.41 77 41.82 77 0 77 C0 51.59 0 26.18 0 0 Z " fill="#5861C6" transform="translate(196,395)"/>
<path d="M0 0 C0.83802824 -0.00465992 1.67605649 -0.00931984 2.53947952 -0.01412097 C5.36034008 -0.02611492 8.1807229 -0.01665859 11.00158787 -0.00736332 C13.03928136 -0.01153431 15.07697253 -0.01701052 17.11465937 -0.02368313 C22.72420242 -0.03818726 28.33359917 -0.03387752 33.9431504 -0.02651632 C39.98891938 -0.02179923 46.03465604 -0.03428153 52.08041477 -0.04453373 C63.24309685 -0.06075957 74.4057334 -0.06316111 85.56842104 -0.05822874 C95.88068872 -0.0536743 106.19293899 -0.05426732 116.50520611 -0.06006908 C117.8876492 -0.06082594 119.2700923 -0.06158192 120.6525354 -0.06233703 C122.73566659 -0.0634822 124.81879777 -0.06463208 126.90192895 -0.06579627 C146.27299701 -0.07650379 165.64405925 -0.08122393 185.01512909 -0.07332611 C185.74558067 -0.07302894 186.47603225 -0.07273176 187.22861872 -0.07242559 C193.1606752 -0.06997657 199.0927316 -0.06736502 205.024788 -0.06474145 C228.1662165 -0.05463812 251.30757244 -0.06299502 274.44899082 -0.086236 C300.44036409 -0.11229687 326.43169368 -0.1251597 352.4230805 -0.11804825 C355.19340614 -0.11733217 357.96373178 -0.11665779 360.73405743 -0.1160078 C361.41619672 -0.115838 362.09833602 -0.11566819 362.80114621 -0.11549323 C373.10684724 -0.11318841 383.41250778 -0.12117595 393.71819973 -0.13429928 C405.43581623 -0.14919382 417.15335397 -0.14970079 428.87097424 -0.13222837 C434.85242798 -0.12368835 440.83370005 -0.1216419 446.81514454 -0.13687992 C452.28707906 -0.15064768 457.75867492 -0.14606624 463.23058946 -0.12664068 C465.21370893 -0.12285596 467.19685502 -0.12587314 469.17995095 -0.13625234 C471.86945888 -0.14933155 474.55778215 -0.13792031 477.24723816 -0.12025452 C478.02259349 -0.12990503 478.79794882 -0.13955554 479.59679976 -0.14949849 C484.77080363 -0.0794077 487.69359016 1.12600468 491.68653965 4.38031673 C495.01312963 8.418253 495.06191616 12.15868963 494.87403965 17.19281673 C494.86050449 17.88568783 494.84696934 18.57855892 494.83302402 19.29242611 C494.7979281 20.98872938 494.74412908 22.68462809 494.68653965 24.38031673 C493.88216465 23.26656673 493.88216465 23.26656673 493.06153965 22.13031673 C489.40831736 17.90026988 486.4295927 15.60481192 480.79353428 14.87892008 C479.28959138 14.85792056 477.78524502 14.85870502 476.28126621 14.87695217 C475.0275582 14.86823153 475.0275582 14.86823153 473.74852276 14.85933471 C470.94111114 14.84470888 468.13457025 14.85863198 465.32716465 14.87238216 C463.29685614 14.86777428 461.26655096 14.86142212 459.23625278 14.85347319 C453.65172776 14.83674141 448.06747539 14.84504381 442.48294926 14.85741806 C436.46241481 14.86645045 430.44192798 14.85250782 424.42140293 14.84149837 C413.30716338 14.82471899 402.19299903 14.82620219 391.07875896 14.83714425 C380.81161662 14.84720282 370.54450622 14.84983499 360.27735996 14.84505367 C359.59656053 14.84474813 358.9157611 14.84444259 358.21433139 14.84412779 C355.45080863 14.84288246 352.68728588 14.84160886 349.92376316 14.84028874 C323.99490772 14.82805019 298.06610778 14.83915061 272.13726091 14.86067633 C249.09636576 14.87965904 226.05555903 14.87796054 203.01466465 14.85883236 C177.13351681 14.83741811 151.25241802 14.82891811 125.37126255 14.84128141 C122.61274816 14.8425643 119.85423375 14.84381566 117.09571934 14.84505367 C116.07687959 14.84552814 116.07687959 14.84552814 115.03745723 14.84601219 C104.77626553 14.85056385 94.51510926 14.84523768 84.25392246 14.83513546 C72.58756097 14.82370716 60.92128363 14.82692473 49.25493145 14.84825844 C43.29980255 14.8587885 37.34485335 14.86285726 31.38972569 14.84966183 C25.94187995 14.83777278 20.49438108 14.84424299 15.04656696 14.86557204 C13.07222812 14.87005289 11.09786017 14.86773876 9.12353992 14.85806888 C6.44587728 14.84595671 3.76941255 14.85832711 1.09181309 14.87695217 C0.3199523 14.86758751 -0.45190849 14.85822284 -1.247159 14.8485744 C-6.41700209 14.92076079 -9.32690463 16.12735009 -13.31346035 19.38031673 C-15.63623451 21.98945543 -15.63623451 21.98945543 -17.31346035 24.38031673 C-17.42229631 22.00406496 -17.50112731 19.63287697 -17.56346035 17.25531673 C-17.59697598 16.59016048 -17.6304916 15.92500423 -17.66502285 15.23969173 C-17.76605898 10.08684905 -16.63476839 7.27777004 -13.31346035 3.38031673 C-9.06086564 0.0873277 -5.18717205 -0.04493958 0 0 Z " fill="#8E94E6" transform="translate(17.31346035003662,-0.38031673431396484)"/>
<path d="M0 0 C9.88312241 6.10331897 14.65381064 14.34298786 18.859375 24.95703125 C21.10592116 37.00668794 19.29406545 47.92695682 12.859375 58.39453125 C7.2693102 66.13354056 0.53629223 71.47571998 -8.453125 74.64453125 C-9.54625 75.05703125 -10.639375 75.46953125 -11.765625 75.89453125 C-22.80234952 78.13928878 -33.41071676 76.56885253 -43.28515625 71.06640625 C-53.62211194 64.18543425 -59.53592005 55.69817384 -62.453125 43.64453125 C-63.94892727 30.76350188 -62.06485635 20.09060269 -54.640625 9.26953125 C-41.03246044 -7.37032567 -18.29446599 -10.1085664 0 0 Z " fill="#D478E2" transform="translate(271.453125,65.35546875)"/>
<path d="M0 0 C4.56779096 3.82931868 8.93806199 7.78283157 13.16308594 11.98608398 C13.73474991 12.55117676 14.30641388 13.11626953 14.895401 13.69848633 C16.76124873 15.54483331 18.62324411 17.39499287 20.484375 19.24609375 C21.44551083 20.20111629 21.44551083 20.20111629 22.42606354 21.17543221 C25.81059485 24.53921245 29.19191805 27.90618108 32.57080078 31.27563477 C36.05141491 34.74514369 39.54355764 38.2028075 43.03835678 41.65801907 C45.73537082 44.32886956 48.423443 47.00858587 51.10919952 49.69075203 C52.39280253 50.96949683 53.67977081 52.24487314 54.97020721 53.51672173 C56.77455421 55.29665999 58.56578987 57.08888047 60.35449219 58.88452148 C60.88440262 59.40162186 61.41431305 59.91872223 61.96028137 60.45149231 C67.34978541 65.91730233 69.42883209 71.23172895 69.4375 78.9375 C69.24568227 86.18053756 68.13686007 90.70596949 63.12890625 95.96484375 C57.45051653 101.21386563 53.02899273 103.28854473 45.1875 103.375 C44.02605469 103.40335938 42.86460937 103.43171875 41.66796875 103.4609375 C33.84483893 102.47783918 28.57732645 98.16674897 23.21679688 92.67089844 C22.59140015 92.04608582 21.96600342 91.42127319 21.32165527 90.77752686 C19.27771489 88.73082235 17.24827396 86.67036704 15.21875 84.609375 C13.79616578 83.17932248 12.3726899 81.75015646 10.94836426 80.32183838 C7.21754355 76.57580792 3.49889658 72.81791875 -0.21728516 69.05737305 C-4.01774119 65.21586396 -7.82966768 61.385774 -11.640625 57.5546875 C-19.10497664 50.04754721 -26.55650857 42.52782015 -34 35 C-27.71154591 27.58442872 -27.71154591 27.58442872 -24.74853516 24.63500977 C-24.18840729 24.07495743 -23.62827942 23.51490509 -23.05117798 22.93788147 C-22.46967987 22.36154465 -21.88818176 21.78520782 -21.2890625 21.19140625 C-20.36956314 20.27402931 -20.36956314 20.27402931 -19.43148804 19.33811951 C-17.49835436 17.41052441 -15.56175013 15.48646072 -13.625 13.5625 C-12.30315301 12.24567596 -10.98153628 10.92862074 -9.66015625 9.61132812 C-6.44275701 6.40487627 -3.22224319 3.20158371 0 0 Z " fill="#6870E4" transform="translate(443,409)"/>
<path d="M0 0 C3.41158256 1.13719419 4.11854601 2.04342944 6 5 C6 5.66 6 6.32 6 7 C6.7425 7.28875 7.485 7.5775 8.25 7.875 C11 9 11 9 12.90124196 10.05423319 C15.23278516 11.10490036 16.78481027 11.25245561 19.33012867 11.25726891 C20.19417468 11.2637178 21.05822069 11.27016669 21.94844991 11.276811 C22.89308793 11.2737138 23.83772596 11.2706166 24.81098938 11.26742554 C26.32166364 11.27422221 26.32166364 11.27422221 27.86285657 11.28115618 C31.24756586 11.29384645 34.6321152 11.29217682 38.0168457 11.29052734 C40.43954679 11.29650972 42.86224597 11.30331458 45.28494263 11.31088257 C51.18898421 11.32674037 57.09298811 11.33299227 62.99704663 11.33410732 C67.79666853 11.33505771 72.59627727 11.33916754 77.395895 11.34550858 C91.00517897 11.36312244 104.6144314 11.3723473 118.22372685 11.37084763 C119.32425769 11.37072776 119.32425769 11.37072776 120.44702148 11.37060547 C121.18160515 11.37052371 121.91618882 11.37044195 122.6730326 11.37035771 C134.57621221 11.36954492 146.47926524 11.38868022 158.38240824 11.4168822 C170.60592184 11.44561456 182.82937372 11.45942228 195.05292195 11.45769465 C201.91492157 11.45703083 208.77678852 11.46251927 215.63875771 11.48405075 C222.09265658 11.50417201 228.54634764 11.50358518 235.00026321 11.48901749 C237.36940227 11.48692322 239.73855869 11.49166687 242.10766792 11.5037384 C245.34146288 11.51914887 248.57428602 11.50990961 251.80805969 11.49447632 C252.74600555 11.50476344 253.68395141 11.51505057 254.65031987 11.52564943 C260.65489258 11.46230552 263.98979527 10.30172621 269 7 C269.66 7 270.32 7 271 7 C271.28875 6.401875 271.5775 5.80375 271.875 5.1875 C273 3 273 3 275 0 C275.66 0 276.32 0 277 0 C277.37026608 8.47497909 277.41700006 14.02889182 271.6875 20.6875 C265.60670302 25.91981368 260.57534384 26.43541575 252.86584473 26.38095093 C251.84814703 26.3856309 250.83044934 26.39031087 249.78191233 26.39513266 C246.37335569 26.40709422 242.96520022 26.39762063 239.55664062 26.38818359 C237.11231756 26.39224876 234.66799633 26.39759034 232.22367859 26.40411377 C226.27474593 26.41637829 220.3259706 26.4145762 214.37704408 26.40587585 C209.54170257 26.39909724 204.70639288 26.39818334 199.87104797 26.4014473 C198.83826847 26.40213684 198.83826847 26.40213684 197.78462473 26.40284032 C196.38585531 26.40379951 194.9870859 26.40477215 193.5883165 26.4057581 C180.47591062 26.41431016 167.36356768 26.40448076 154.25117213 26.388357 C143.0031913 26.37495397 131.75530337 26.37728211 120.50732422 26.39111328 C107.44143886 26.40717236 94.37560865 26.4134862 81.30971479 26.40427649 C79.91612721 26.40332086 78.52253962 26.40237774 77.12895203 26.4014473 C76.44330277 26.40098447 75.75765351 26.40052164 75.051227 26.40004479 C70.22239571 26.39745588 65.39359943 26.40182376 60.56477356 26.40888596 C54.06407882 26.4181844 47.56353238 26.41155232 41.06284523 26.39420319 C38.67555343 26.39023286 36.28824688 26.39138167 33.90096092 26.39799118 C30.64515882 26.40617491 27.3899213 26.39592285 24.13415527 26.38095093 C23.18687891 26.38764309 22.23960256 26.39433526 21.26362085 26.40123022 C14.63586004 26.3420138 10.44954442 25.10774752 5.3125 20.6875 C-0.41700006 14.02889182 -0.37026608 8.47497909 0 0 Z " fill="#5861C7" transform="translate(119,486)"/>
<path d="M0 0 C0.7843895 -0.01260864 1.56877899 -0.02521729 2.37693787 -0.03820801 C3.634869 -0.02606262 3.634869 -0.02606262 4.91821289 -0.01367188 C5.78853653 -0.01749878 6.65886017 -0.02132568 7.55555725 -0.02526855 C9.39382078 -0.02798704 11.23212303 -0.02063022 13.0703125 -0.00390625 C15.87791666 0.01747947 18.68295452 -0.0036956 21.49047852 -0.02929688 C23.2788956 -0.02665308 25.0673111 -0.02152703 26.85571289 -0.01367188 C27.69230942 -0.0217688 28.52890594 -0.02986572 29.39085388 -0.03820801 C33.37458807 0.02557209 35.49795312 0.24610756 38.99072266 2.328125 C40.95336914 4.51757812 40.95336914 4.51757812 41.45336914 8.08007812 C40.95336914 11.51757812 40.95336914 11.51757812 39.87792969 13.21411133 C36.9673064 15.18541892 34.04970586 14.88721784 30.66040039 14.81054688 C29.6013575 14.80417961 29.6013575 14.80417961 28.5209198 14.79768372 C26.26884611 14.78090846 24.01767172 14.74326055 21.76586914 14.70507812 C20.23788729 14.6900297 18.70989138 14.67634156 17.18188477 14.6640625 C13.43842217 14.63356172 9.69690058 14.57484461 5.95336914 14.51757812 C5.95336914 20.78757812 5.95336914 27.05757812 5.95336914 33.51757812 C7.92821289 33.47117188 9.90305664 33.42476562 11.93774414 33.37695312 C14.52627071 33.33943825 17.1148136 33.30303779 19.70336914 33.26757812 C21.00532227 33.2340625 22.30727539 33.20054688 23.64868164 33.16601562 C24.89907227 33.153125 26.14946289 33.14023438 27.43774414 33.12695312 C29.16589355 33.09553223 29.16589355 33.09553223 30.92895508 33.06347656 C33.95336914 33.51757812 33.95336914 33.51757812 36.3605957 35.31933594 C37.95336914 37.51757812 37.95336914 37.51757812 37.95336914 41.08007812 C36.83380157 44.92859163 36.34673696 45.6088981 32.95336914 47.51757812 C30.11254883 47.8581543 30.11254883 47.8581543 26.87524414 47.81054688 C25.71508789 47.80087891 24.55493164 47.79121094 23.35961914 47.78125 C22.15305664 47.75611328 20.94649414 47.73097656 19.70336914 47.70507812 C17.87032227 47.68477539 17.87032227 47.68477539 16.00024414 47.6640625 C12.98443093 47.62872094 9.96884437 47.57491463 6.95336914 47.51757812 C6.95336914 53.45757812 6.95336914 59.39757812 6.95336914 65.51757812 C10.13219727 65.46537109 10.13219727 65.46537109 13.37524414 65.41210938 C15.43382419 65.38869524 17.49238926 65.37048936 19.55102539 65.3527832 C20.9788276 65.33772132 22.40658374 65.3172675 23.83422852 65.29125977 C25.88968287 65.25475971 27.94452419 65.23782646 30.00024414 65.22460938 C31.23613281 65.20889893 32.47202148 65.19318848 33.74536133 65.17700195 C37.19152366 65.54286165 38.59414416 66.01081139 40.95336914 68.51757812 C41.49991551 72.27508442 41.62979135 74.49874554 39.49829102 77.70922852 C35.69872464 80.40909308 32.28927645 80.07291811 27.73461914 80.01367188 C26.83972778 80.01512711 25.94483643 80.01658234 25.02282715 80.01808167 C23.13326762 80.01642376 21.24369444 80.00487457 19.35424805 79.98413086 C16.46352728 79.95517986 13.57464123 79.96352313 10.68383789 79.9765625 C8.8465894 79.97032473 7.0093467 79.96193349 5.17211914 79.95117188 C3.87667175 79.95557533 3.87667175 79.95557533 2.55505371 79.96006775 C1.74741577 79.94738358 0.93977783 79.9346994 0.10766602 79.92163086 C-0.59974731 79.91622787 -1.30716064 79.91082489 -2.03601074 79.90525818 C-4.83534536 79.36550122 -6.09574734 78.61422039 -8.04663086 76.51757812 C-8.55456543 73.45033264 -8.55456543 73.45033264 -8.56420898 69.63110352 C-8.57121826 68.93483353 -8.57822754 68.23856354 -8.58544922 67.52119446 C-8.60305906 65.21880239 -8.59139593 62.91763902 -8.57788086 60.61523438 C-8.58057525 59.0148444 -8.58445724 57.41445602 -8.58947754 55.81407166 C-8.59537684 52.45897851 -8.5867973 49.10431123 -8.56811523 45.74926758 C-8.54534331 41.45035616 -8.55843407 37.15244457 -8.58240509 32.85356998 C-8.59686742 29.54809554 -8.59225488 26.24285764 -8.58189392 22.93737602 C-8.57922686 21.35255248 -8.58249573 19.76770741 -8.59181213 18.18290901 C-8.60198349 15.96584443 -8.58647071 13.75039191 -8.56420898 11.53344727 C-8.56102661 10.27230606 -8.55784424 9.01116486 -8.55456543 7.71180725 C-8.04663086 4.51757812 -8.04663086 4.51757812 -6.26719666 2.11143494 C-3.89096126 0.40584307 -2.87519627 0.01332583 0 0 Z " fill="#D478E2" transform="translate(162.046630859375,60.482421875)"/>
<path d="M0 0 C3.784893 2.42335909 7.11659275 5.48999359 9.3125 9.4375 C9.45306999 13.09231963 9.0241218 14.58902786 6.6875 17.375 C3.18276928 18.94290585 0.98358091 18.40357392 -2.6875 17.4375 C-5.5 15.4375 -5.5 15.4375 -7.6875 13.4375 C-10.86162177 11.85043912 -14.22388667 12.15272873 -17.6875 12.4375 C-20.56964887 13.31964887 -20.56964887 13.31964887 -22.6875 14.4375 C-22.82345863 15.85146973 -22.91993845 17.26926684 -23 18.6875 C-23.05800781 19.47640625 -23.11601563 20.2653125 -23.17578125 21.078125 C-22.86540658 23.60168454 -22.86540658 23.60168454 -20.77734375 25.5 C-16.696643 28.0588212 -12.45155157 29.55395397 -7.9375 31.1875 C1.12335991 34.64104117 7.40738785 38.34902053 13.375 46.125 C15.26370578 52.79842709 15.62967851 60.43296057 12.75 66.875 C9.18858458 72.84005621 3.6666217 76.81297147 -2.6875 79.4375 C-11.93221933 81.61453175 -20.31373232 81.07374275 -28.6875 76.4375 C-32.93206051 73.51986425 -36.68221086 70.27378556 -38.6875 65.4375 C-39.175513 61.46367986 -39.30518434 59.3640265 -37.0625 56 C-34.6875 54.4375 -34.6875 54.4375 -31.875 53.6875 C-27.52135328 54.71188746 -26.14585725 57.06256174 -23.40625 60.45703125 C-20.15759962 64.20036248 -17.01818833 65.29492625 -12.1875 65.8125 C-8.36240508 65.4026684 -5.94528914 64.45422661 -2.6875 62.4375 C-1.11579004 59.29408007 -1.45574217 55.87978549 -1.6875 52.4375 C-2.0175 51.4475 -2.3475 50.4575 -2.6875 49.4375 C-4.80290863 48.36457703 -4.80290863 48.36457703 -7.6875 47.4375 C-30.20859137 38.90873904 -30.20859137 38.90873904 -37.75 28.625 C-39.35871743 23.15536075 -39.89818948 17.57453096 -37.80859375 12.16015625 C-30.27179432 -0.79915894 -13.97430468 -6.33465562 0 0 Z " fill="#D478E2" transform="translate(128.6875,61.5625)"/>
<path d="M0 0 C1.6640625 0.984375 1.6640625 0.984375 3.375 2.25 C4.20128906 2.84425781 5.02757812 3.43851562 5.87890625 4.05078125 C11.02086042 8.5811728 13.85469413 14.88561615 14.89453125 21.609375 C15.17659417 30.51002715 13.03312036 37.01938459 7.6875 44.0625 C2.50192243 49.56817495 -2.95390569 51.37070105 -10.46191406 51.82275391 C-18.41137667 52.02047415 -24.65352821 50.81355342 -30.625 45.25 C-38.18357349 36.26352351 -38.3903728 27.55050426 -37.625 16.25 C-36.01405204 9.15312116 -30.35361888 4.36533161 -24.625 0.25 C-17.77492713 -3.28997054 -6.97781541 -3.38884343 0 0 Z " fill="#FEEDE3" transform="translate(261.625,75.75)"/>
<path d="M0 0 C3.40608918 5.10913377 2.51661442 11.03906442 2 17 C0.32467918 23.65887008 -4.46647125 28.18732656 -10 32 C-13.97772675 34.00221145 -17.38027057 34.32613308 -21.8125 34.375 C-22.97394531 34.40335938 -24.13539063 34.43171875 -25.33203125 34.4609375 C-33.96095767 33.37657827 -39.16809799 28.40527237 -45 22.3125 C-46.01900391 21.27899414 -46.01900391 21.27899414 -47.05859375 20.22460938 C-52 15.16886475 -52 15.16886475 -52 14 C-50.48031616 13.98598145 -50.48031616 13.98598145 -48.92993164 13.97167969 C-45.13311488 13.93148878 -41.33708389 13.86565331 -37.54077148 13.79248047 C-35.90480728 13.76443813 -34.26871181 13.74314119 -32.63256836 13.72900391 C-17.88753995 13.74503373 -17.88753995 13.74503373 -5.37109375 6.640625 C-4.41396484 5.45726562 -4.41396484 5.45726562 -3.4375 4.25 C-2.77621094 3.45078125 -2.11492187 2.6515625 -1.43359375 1.828125 C-0.96050781 1.22484375 -0.48742187 0.6215625 0 0 Z " fill="#5A61C6" transform="translate(510,478)"/>
</svg>
